<svg width="19" height="18" viewBox="0 0 19 18" fill="none" xmlns="http://www.w3.org/2000/svg">
<path d="M14.001 17.6522C13.2291 17.6525 12.4705 17.4664 11.8005 17.1124L11.706 17.0632C7.34935 14.7603 3.70453 11.4636 1.11972 7.48797L0.626967 6.72908C0.122287 5.95323 -0.0868434 5.04361 0.0329055 4.14517C0.152654 3.24674 0.59439 2.41119 1.28772 1.77169L2.26947 0.864491C3.09447 0.102136 4.43622 0.102136 5.26047 0.864491L7.42347 2.86325C7.74899 3.16547 7.95906 3.5575 8.02185 3.97994C8.08465 4.40238 7.99675 4.83223 7.77147 5.20437L6.95847 6.53849C6.94138 6.56656 6.9347 6.59903 6.93944 6.63093C6.94418 6.66284 6.96008 6.69244 6.98472 6.71522L11.8005 11.1653C11.8255 11.188 11.8578 11.2025 11.8926 11.2068C11.9273 11.211 11.9627 11.2047 11.9932 11.1889L13.4347 10.4383L13.4355 10.4376C13.8383 10.2296 14.3034 10.1485 14.7605 10.2066C15.2176 10.2646 15.6418 10.4586 15.969 10.7592L18.1327 12.7593C18.9577 13.5217 18.9577 14.7615 18.1327 15.5232L17.1075 16.4699C16.6992 16.846 16.2146 17.144 15.6816 17.3468C15.1485 17.5497 14.5775 17.6535 14.001 17.6522ZM3.76497 1.67882C3.60747 1.67882 3.44997 1.73427 3.32997 1.84516L2.34822 2.75167C1.8919 3.17258 1.60115 3.72252 1.52232 4.31385C1.44348 4.90518 1.58109 5.50387 1.91322 6.01455L2.40597 6.77344C4.85783 10.5448 8.31515 13.6723 12.4477 15.8572L12.5422 15.9065C13.6867 16.5115 15.1267 16.3403 16.0462 15.4892L17.0715 14.5425C17.1286 14.4898 17.1739 14.4271 17.2049 14.3581C17.2358 14.2891 17.2517 14.2152 17.2517 14.1406C17.2517 14.0659 17.2358 13.992 17.2049 13.923C17.1739 13.854 17.1286 13.7914 17.0715 13.7386L14.9077 11.7384C14.8125 11.651 14.689 11.5946 14.5559 11.5778C14.4229 11.5611 14.2876 11.5849 14.1705 11.6456L12.729 12.3962C12.4129 12.5597 12.0478 12.6236 11.6889 12.5782C11.33 12.5328 10.9969 12.3806 10.74 12.1446L5.92422 7.6945C5.66857 7.4574 5.50365 7.14968 5.45451 6.81807C5.40537 6.48647 5.4747 6.1491 5.65197 5.85722L6.46497 4.5238C6.53029 4.41556 6.55574 4.29064 6.53747 4.16787C6.51921 4.0451 6.45822 3.93115 6.36372 3.84322L4.19997 1.84516C4.14288 1.79233 4.07507 1.75044 4.00042 1.7219C3.92577 1.69336 3.84575 1.67872 3.76497 1.67882Z" fill="#C0CAFF"/>
</svg>
